<mxfile host="www.draw.io" modified="2019-10-19T22:26:03.584Z" agent="Mozilla/5.0 (Windows NT 10.0; Win64; x64) AppleWebKit/537.36 (KHTML, like Gecko) Chrome/76.0.3809.132 Safari/537.36" etag="2e5_dH0m1nS0loijkUzI" version="12.1.3" type="github" pages="1">
  <diagram id="ks2A7EucgP2BNm0lF7E0" name="Page-1">
    <mxGraphModel dx="1049" dy="463" grid="1" gridSize="10" guides="1" tooltips="1" connect="1" arrows="1" fold="1" page="1" pageScale="1" pageWidth="827" pageHeight="1169" math="0" shadow="0">
      <root>
        <mxCell id="0"/>
        <mxCell id="1" parent="0"/>
        <mxCell id="uocUyu8FgRilAEcmeCP6-1" value="Usuario &lt;&lt;abstracta&gt;&gt;" style="swimlane;fontStyle=1;align=center;verticalAlign=top;childLayout=stackLayout;horizontal=1;startSize=26;horizontalStack=0;resizeParent=1;resizeParentMax=0;resizeLast=0;collapsible=1;marginBottom=0;" vertex="1" parent="1">
          <mxGeometry x="200" y="100" width="160" height="120" as="geometry"/>
        </mxCell>
        <mxCell id="uocUyu8FgRilAEcmeCP6-2" value="- email: string&#xa;- pass: string&#xa;" style="text;strokeColor=none;fillColor=none;align=left;verticalAlign=top;spacingLeft=4;spacingRight=4;overflow=hidden;rotatable=0;points=[[0,0.5],[1,0.5]];portConstraint=eastwest;" vertex="1" parent="uocUyu8FgRilAEcmeCP6-1">
          <mxGeometry y="26" width="160" height="44" as="geometry"/>
        </mxCell>
        <mxCell id="uocUyu8FgRilAEcmeCP6-3" value="" style="line;strokeWidth=1;fillColor=none;align=left;verticalAlign=middle;spacingTop=-1;spacingLeft=3;spacingRight=3;rotatable=0;labelPosition=right;points=[];portConstraint=eastwest;" vertex="1" parent="uocUyu8FgRilAEcmeCP6-1">
          <mxGeometry y="70" width="160" height="8" as="geometry"/>
        </mxCell>
        <mxCell id="uocUyu8FgRilAEcmeCP6-4" value="+ iniciarSesion()&#xa;+ cerrarSesion()" style="text;strokeColor=none;fillColor=none;align=left;verticalAlign=top;spacingLeft=4;spacingRight=4;overflow=hidden;rotatable=0;points=[[0,0.5],[1,0.5]];portConstraint=eastwest;" vertex="1" parent="uocUyu8FgRilAEcmeCP6-1">
          <mxGeometry y="78" width="160" height="42" as="geometry"/>
        </mxCell>
        <mxCell id="uocUyu8FgRilAEcmeCP6-10" value="UsuarioAlumno" style="swimlane;fontStyle=1;align=center;verticalAlign=top;childLayout=stackLayout;horizontal=1;startSize=26;horizontalStack=0;resizeParent=1;resizeParentMax=0;resizeLast=0;collapsible=1;marginBottom=0;" vertex="1" parent="1">
          <mxGeometry x="200" y="270" width="160" height="160" as="geometry"/>
        </mxCell>
        <mxCell id="uocUyu8FgRilAEcmeCP6-11" value="- nombre: string&#xa;- apellido: string&#xa;- tipoDoc: ListBox&#xa;- documento: string&#xa;- avatar: file" style="text;strokeColor=none;fillColor=none;align=left;verticalAlign=top;spacingLeft=4;spacingRight=4;overflow=hidden;rotatable=0;points=[[0,0.5],[1,0.5]];portConstraint=eastwest;" vertex="1" parent="uocUyu8FgRilAEcmeCP6-10">
          <mxGeometry y="26" width="160" height="84" as="geometry"/>
        </mxCell>
        <mxCell id="uocUyu8FgRilAEcmeCP6-12" value="" style="line;strokeWidth=1;fillColor=none;align=left;verticalAlign=middle;spacingTop=-1;spacingLeft=3;spacingRight=3;rotatable=0;labelPosition=right;points=[];portConstraint=eastwest;" vertex="1" parent="uocUyu8FgRilAEcmeCP6-10">
          <mxGeometry y="110" width="160" height="8" as="geometry"/>
        </mxCell>
        <mxCell id="uocUyu8FgRilAEcmeCP6-13" value="+ iniciarSesion()&#xa;+ cerrarSesion()" style="text;strokeColor=none;fillColor=none;align=left;verticalAlign=top;spacingLeft=4;spacingRight=4;overflow=hidden;rotatable=0;points=[[0,0.5],[1,0.5]];portConstraint=eastwest;" vertex="1" parent="uocUyu8FgRilAEcmeCP6-10">
          <mxGeometry y="118" width="160" height="42" as="geometry"/>
        </mxCell>
      </root>
    </mxGraphModel>
  </diagram>
</mxfile>
